# xmcd
#
# Track frame offsets:
# 150
# 5127
# 21457
# 28090
# 46602
# 59190
# 65697
# 78175
# 88812
# 104325
# 109662
# 115882
# 125515
# 143225
# 157807
# 176717
# 179560
# 184900
# 201732
# 216055
# 224880
# 228330
# 241347
# 254757
# 265490
# 283782
# 293147
#
# Disc length: 4142 seconds
#
#
# Revision: 0
# Processed by: cddbd v1.4PL0 Copyright (c) Steve Scherf et al.
# Submitted via: FreeRIP 2.00 
#
DISCID=b2102c1b
DTITLE=Tim and Willy - Tim and Willennium
DYEAR=1999
DGENRE=Comedy
TTITLE0=Unintelligible
TTITLE1=He'll have to go
TTITLE2=Greg Mann
TTITLE3=Bang Bang Bang , diamondbacks song
TTITLE4=The greatest
TTITLE5=Kenny Chesney wake up 
TTITLE6=Y2K
TTITLE7=the drop store
TTITLE8=mr jones
TTITLE9=a listeners 2 cent's worth
TTITLE10=Good Night Andrea
TTITLE11=Pointless
TTITLE12=Jim Brewer
TTITLE13=Michael Martin Murphy
TTITLE14=One eye love
TTITLE15=Waylon Wednesday
TTITLE16=the needs of many
TTITLE17=Willy , the zipper and the church camp
TTITLE18=I threw the rest away 
TTITLE19=Tempe Town Lake
TTITLE20=Hooded Hangman Vs Dr Keven Leman
TTITLE21=Glen Campbell
TTITLE22=I'm a Diamondback Fan
TTITLE23=We Wish you a merry Christmas
TTITLE24=Here we go again
TTITLE25=Islands in the stream
TTITLE26=Why do the Heros die so young
EXTD=Radio show hosts for KNIX phoenix AZ 
EXTT0=
EXTT1=
EXTT2=
EXTT3=
EXTT4=
EXTT5=
EXTT6=
EXTT7=
EXTT8=
EXTT9=
EXTT10=
EXTT11=
EXTT12=
EXTT13=
EXTT14=
EXTT15=
EXTT16=
EXTT17=
EXTT18=
EXTT19=
EXTT20=
EXTT21=
EXTT22=
EXTT23=
EXTT24=
EXTT25=
EXTT26=
PLAYORDER=
